<svg width="15" height="15" viewBox="0 0 15 15" fill="none" xmlns="http://www.w3.org/2000/svg">
<path d="M7.5 0C3.36 0 0 3.36 0 7.5C0 11.64 3.36 15 7.5 15C11.64 15 15 11.64 15 7.5C15 3.36 11.64 0 7.5 0ZM7.5 2.25C8.745 2.25 9.75 3.255 9.75 4.5C9.75 5.745 8.745 6.75 7.5 6.75C6.255 6.75 5.25 5.745 5.25 4.5C5.25 3.255 6.255 2.25 7.5 2.25ZM7.5 12.9C6.6089 12.9 5.73164 12.6795 4.94646 12.2581C4.16128 11.8367 3.49258 11.2276 3 10.485C3.0225 8.9925 6 8.175 7.5 8.175C8.9925 8.175 11.9775 8.9925 12 10.485C11.5074 11.2276 10.8387 11.8367 10.0535 12.2581C9.26836 12.6795 8.3911 12.9 7.5 12.9Z" fill="#DCDCDC"/>
</svg>
