<svg width="16" height="12" viewBox="0 0 16 12" fill="none" xmlns="http://www.w3.org/2000/svg">
<path d="M7.34018 11.6544C7.41357 11.761 7.51177 11.8481 7.62632 11.9083C7.74086 11.9685 7.86833 12 7.99774 12C8.12714 12 8.25461 11.9685 8.36916 11.9083C8.48371 11.8481 8.58191 11.761 8.65529 11.6544L15.8548 1.25511C15.9381 1.13517 15.987 0.994677 15.9961 0.848906C16.0052 0.703136 15.9742 0.55766 15.9064 0.428286C15.8386 0.298911 15.7367 0.190586 15.6116 0.115079C15.4866 0.0395717 15.3433 -0.000229059 15.1972 9.91654e-07H0.798234C0.652519 0.000602878 0.509725 0.0409155 0.385207 0.116603C0.26069 0.192291 0.15916 0.300491 0.0915379 0.429566C0.0239153 0.558641 -0.00724203 0.703709 0.00141654 0.849167C0.0100751 0.994626 0.058222 1.13497 0.140679 1.25511L7.34018 11.6544Z" fill="#DCDCDC"/>
</svg>
