<svg width="9" height="12" viewBox="0 0 9 12" fill="none" xmlns="http://www.w3.org/2000/svg">
<path d="M8.4 4.2C8.4 3.64845 8.29136 3.1023 8.08029 2.59273C7.86922 2.08316 7.55985 1.62016 7.16985 1.23015C6.77984 0.840145 6.31684 0.530776 5.80727 0.319706C5.2977 0.108636 4.75155 0 4.2 0C3.64845 0 3.1023 0.108636 2.59273 0.319706C2.08316 0.530776 1.62016 0.840145 1.23015 1.23015C0.840145 1.62016 0.530776 2.08316 0.319706 2.59273C0.108636 3.1023 -8.21876e-09 3.64845 0 4.2C0 5.0322 0.246 5.8062 0.663 6.459H0.6582C2.0742 8.676 4.2 12 4.2 12L7.7418 6.459H7.7376C8.16985 5.78482 8.39973 5.00085 8.4 4.2ZM4.2 6C3.72261 6 3.26477 5.81036 2.92721 5.47279C2.58964 5.13523 2.4 4.67739 2.4 4.2C2.4 3.72261 2.58964 3.26477 2.92721 2.92721C3.26477 2.58964 3.72261 2.4 4.2 2.4C4.67739 2.4 5.13523 2.58964 5.47279 2.92721C5.81036 3.26477 6 3.72261 6 4.2C6 4.67739 5.81036 5.13523 5.47279 5.47279C5.13523 5.81036 4.67739 6 4.2 6Z" fill="#DCDCDC"/>
</svg>
